<svg xmlns:svg="http://www.w3.org/2000/svg" xmlns="http://www.w3.org/2000/svg" width="192.3" height="170.4" version="1.1"><style>.s0{fill:#f8bd24;}</style><g transform="translate(-295.23549,-289.71527)"><path transform="translate(-9.6489975,57.3531)" d="m497.1 286.6c0 30-24.3 54.3-54.3 54.3-30 0-54.3-24.3-54.3-54.3 0-30 24.3-54.3 54.3-54.3 30 0 54.3 24.3 54.3 54.3zM497.1 286.6" fill="#f8bd24"/><path transform="matrix(0.53269537,0,0,0.53269537,161.95075,278.45684)" d="m497.1 286.6c0 30-24.3 54.3-54.3 54.3-30 0-54.3-24.3-54.3-54.3 0-30 24.3-54.3 54.3-54.3 30 0 54.3 24.3 54.3 54.3z" fill="#f8bd24"/><path transform="matrix(0.7368421,0,0,0.7368421,8.9197035,170.53849)" d="m497.1 286.6c0 30-24.3 54.3-54.3 54.3-30 0-54.3-24.3-54.3-54.3 0-30 24.3-54.3 54.3-54.3 30 0 54.3 24.3 54.3 54.3z" fill="#f8bd24"/></g></svg>